<?xml version="1.0" encoding="UTF-8"?>
<svg width="122px" height="27px" viewBox="0 0 122 27" version="1.1" xmlns="http://www.w3.org/2000/svg" xmlns:xlink="http://www.w3.org/1999/xlink">
    <!-- Generator: Sketch 57.1 (83088) - https://sketch.com -->
    <title>Logo</title>
    <desc>Created with Sketch.</desc>
    <g id="Symbols" stroke="none" stroke-width="1" fill="none" fill-rule="evenodd">
        <g id="Module-/-Menu-/-Close-/-Top" transform="translate(-622.000000, -8.000000)" fill="#FFF166" fill-rule="nonzero">
            <g id="Atom/Logo/Expanded/Accent" transform="translate(622.000000, 8.000000)">
                <path d="M23.1215207,6.05045455 C25.0755372,6.05045455 25.7188099,6.54545455 25.7188099,7.98136364 C25.7188099,10.1720455 24.2527934,15.8829545 22.8129917,19.4031818 C20.808562,24.2018182 18.3907438,26.8097727 15.9225124,26.8097727 C14.3294545,26.8097727 13.0429091,25.7665909 13.0429091,24.5147727 C13.015828,23.4204162 13.8676705,22.5105887 14.9465124,22.4815909 C15.1763967,22.4815909 15.2792397,22.6104545 15.3054545,22.8722727 C15.4345124,24.1752273 16.1120661,24.8543182 17.2090579,24.8543182 C18.9815868,24.8543182 20.0624463,23.1852273 20.0624463,20.4197727 C20.0624463,14.3693182 16.4105124,7.43318182 13.2223802,7.43318182 C12.9582149,7.43318182 12.9582149,7.22454545 13.214314,7.01590909 C14.1157025,6.28568182 14.7327603,6.05045455 15.7853884,6.05045455 C18.6085289,6.05045455 21.3913388,11.3972727 22.2644959,18.5420455 C24.502843,12.5713636 24.785157,8.00590909 23.0711074,6.39 C22.8896198,6.20590909 22.8896198,6.05045455 23.1215207,6.05045455 Z M51.6533884,0.0777272727 C53.1173884,0.0777272727 53.8413223,1.06977273 53.8413223,3.10295455 C53.8413223,5.35295455 53.7384793,9.62386364 53.7384793,13.1440909 C53.7344463,17.9427273 55.0209917,20.3154545 57.6424793,20.3154545 C60.1369256,20.3154545 61.6533554,17.8118182 61.6533554,13.6656818 C61.6533554,9.98386364 60.3688264,7.48431818 57.7453223,7.48431818 C56.6140496,7.48431818 55.8699504,7.82386364 55.1500496,8.73613636 C54.968562,8.94068182 54.8153058,8.86704545 54.8153058,8.65840909 C54.8153058,7.45977273 56.6402645,6.05045455 58.6467107,6.05045455 C62.1675702,6.05045455 64.3030744,8.86704545 64.3030744,13.1440909 C64.3030744,18.2822727 61.9618843,21.2809091 57.9510083,21.2809091 C54.6862479,21.2809091 55.0472066,19.9779545 53.0931901,19.9779545 C52.2704463,19.9779545 51.6533884,20.4463636 51.342843,21.2543182 C51.0867438,21.96 50.6229421,21.8290909 50.752,21.0988636 C51.1895868,18.7506818 51.3186446,16.6643182 51.3952727,11.3706818 C51.4719008,4.00704545 50.9919669,1.17409091 49.5945124,0.965454545 C49.2355702,0.912272727 49.2093554,0.677045455 49.5178843,0.556363636 C50.1939777,0.262858279 50.9183211,0.100509218 51.6533884,0.0777272727 Z M7.53375207,0.409090909 C10.9779835,0.409090909 13.4986446,1.77340909 13.4986446,3.65113636 C13.4986446,4.56340909 12.9844298,5.34681818 12.0326281,5.94613636 C11.7240992,6.15068182 11.5446281,6.12818182 11.5184132,5.86840909 C11.1594711,3.10295455 9.4877686,1.40727273 7.17279339,1.40727273 C5.27120661,1.40727273 4.01087603,2.58136364 4.01087603,4.30363636 C4.01087603,6.20590909 5.16836364,7.58863636 8.15080992,9.21272727 C12.238314,11.3972727 13.9362314,13.4059091 13.9362314,16.0915909 C13.9362314,19.4563636 11.468,21.2809091 7.08003306,21.2809091 C2.87960331,21.2727273 7.10542736e-15,19.5852273 7.10542736e-15,17.1818182 C7.10542736e-15,15.93 0.669487603,14.9318182 1.85117355,14.3406818 C2.1334876,14.1872727 2.26254545,14.2404545 2.26254545,14.4490909 C2.26254545,18 4.21656198,20.2909091 7.27563636,20.2909091 C9.59061157,20.2909091 11.0566281,19.0636364 11.0566281,17.1347727 C11.0566281,15.0893182 9.69345455,13.6145455 5.96489256,11.6120455 C2.6214876,9.80590909 1.26033058,8.08568182 1.26033058,5.55545455 C1.26033058,2.42590909 3.70234711,0.409090909 7.53375207,0.409090909 Z M116.392033,6.04022727 C119.424893,6.05045455 121.739868,7.95477273 121.739868,10.4584091 C121.739868,12.78 119.836264,14.2138636 116.803405,14.2138636 C115.440231,14.2138636 114.38357,13.9275 113.845157,13.4059091 C113.409587,12.9968182 113.562843,12.7534091 114.04681,12.9354545 C114.59629,13.151419 115.181726,13.2576839 115.770942,13.2484091 C117.724959,13.275 118.983273,12.0497727 118.983273,10.0922727 C118.983273,8.13477273 117.90443,6.885 116.285157,6.885 C114.066975,6.885 112.556595,9.38863636 112.556595,13.0397727 C112.556595,17.4211364 114.690083,20.4034091 117.79957,20.4034091 C119.110314,20.4034091 120.39686,19.6977273 121.346645,18.4213636 C121.630975,18.0286364 122.153256,18.3170455 121.86086,18.7854545 C120.967537,20.3686364 119.142579,21.2727273 116.930446,21.2727273 C112.560628,21.2727273 109.628595,18.1431818 109.628595,13.5 C109.628595,9.20454545 112.508198,6.04022727 116.392033,6.04022727 Z M79.265719,6.05045455 C83.4560661,6.05045455 86.1219174,9.12886364 86.1219174,13.7188636 C86.1420272,15.4895612 85.6145168,17.222124 84.6135537,18.6729545 C83.7141818,19.9002273 82.2219504,20.9229545 81.3487934,20.9229545 C81.1935207,20.9229545 81.1168926,20.8431818 81.1168926,20.7388636 C81.1168926,20.4790909 81.5544793,20.4013636 82.1957355,19.3581818 C83.0446942,17.9754545 83.4560661,16.2020455 83.4560661,14.0625 C83.4560661,12.1336364 83.097124,10.4379545 82.4276364,9.23931818 C81.6311074,7.77886364 80.4736198,6.98931818 79.162876,6.98931818 C76.8741157,6.98931818 75.254843,9.38863636 75.254843,12.8045455 C75.254843,15.5168182 76.2066446,17.9693182 77.8521322,19.4563636 C79.1104463,20.6038636 80.0884628,20.6284091 80.0884628,20.9679545 C80.0884628,21.3075 79.650876,21.3075 78.2110744,21.0988636 C74.766843,20.4729545 72.3752397,17.3863636 72.3752397,13.5613636 C72.3752397,9.15340909 75.3052562,6.05045455 79.265719,6.05045455 Z M96.829686,6.05045455 C98.3723306,6.05045455 99.2495207,6.98931818 99.2495207,8.65840909 C99.2495207,9.3375 99.170876,10.9084091 99.1204628,13.8477273 C99.0176198,19.8204545 99.1466777,20.4197727 100.586479,20.5772727 C101.171273,20.6590909 101.016,21.0988636 100.528,21.0988636 C99.4229421,21.0988636 98.8825124,20.9413636 97.8540826,20.9413636 C96.8256529,20.9413636 96.2590083,21.0988636 95.1801653,21.0988636 C94.6397355,21.0988636 94.5893223,20.655 95.1277355,20.5772727 C96.517124,20.3952273 96.6723967,19.7938636 96.7228099,14.2915909 C96.7732231,9.49295455 96.3880661,7.90159091 95.1539504,7.90159091 C94.6659504,7.90159091 94.2021488,8.10613636 93.0204628,8.84045455 C92.617157,9.10227273 92.2481322,8.685 92.8188099,8.21454545 C94.6437686,6.64977273 95.750843,6.05045455 96.829686,6.05045455 Z M37.0799339,6.05045455 C38.6225785,6.05045455 39.4997686,6.98931818 39.4997686,8.65840909 C39.4997686,9.3375 39.4231405,10.9084091 39.3707107,13.8477273 C39.2678678,19.8204545 39.3969256,20.4197727 40.8367273,20.5772727 C41.3852231,20.6542781 41.2817312,21.0483643 40.8591279,21.0944609 L40.776,21.0982233 L40.4293635,21.0934624 C39.5470699,21.0658081 39.0184904,20.9413636 38.1043306,20.9413636 C37.0759008,20.9413636 36.5112727,21.0988636 35.4304132,21.0988636 C34.892,21.0988636 34.8395702,20.655 35.38,20.5772727 C36.7673719,20.3952273 36.9226446,19.7938636 36.9730579,14.2915909 C37.0254876,9.49295455 36.6403306,7.90159091 35.4062149,7.90159091 C34.9161983,7.90159091 34.4544132,8.10613636 33.2707107,8.84045455 C32.867405,9.10227273 32.5003967,8.685 33.0690579,8.21454545 C34.8960331,6.64977273 36.0010909,6.05045455 37.0799339,6.05045455 Z M104.53686,6.05045455 C106.079504,6.05045455 106.928463,6.98931818 106.928463,8.65840909 C106.928463,9.3375 106.876033,10.9084091 106.82562,13.8477273 C106.724793,19.8204545 106.853851,20.4197727 108.287603,20.5772727 C108.878446,20.655 108.723174,21.0988636 108.235174,21.0988636 C107.156331,21.0988636 106.589686,20.9413636 105.561256,20.9413636 C104.532826,20.9413636 103.968198,21.0988636 102.887339,21.0988636 C102.346909,21.0988636 102.296496,20.655 102.836926,20.5772727 C104.224298,20.4197727 104.37957,19.7938636 104.429983,14.2915909 C104.482413,9.70159091 103.992397,7.875 102.758281,7.875 C102.354975,7.875 101.935537,8.07954545 100.780066,8.81590909 C100.37676,9.07568182 100.007736,8.65840909 100.578413,8.19 C102.377157,6.64977273 103.482215,6.05045455 104.53686,6.05045455 Z M30.3386777,6.29386364 C31.3146777,6.32045455 31.7502479,6.86659091 31.7502479,8.04068182 C31.7502479,9.13704545 31.5183471,11.3522727 31.5707769,14.3815909 C31.6756364,20.0025 31.7784793,20.4197727 33.115438,20.5772727 C33.7324959,20.655 33.5772231,21.0988636 33.0630083,21.0988636 C32.0103802,21.0988636 31.4497851,20.9413636 30.3890909,20.9413636 C29.3808264,20.9413636 28.8222479,21.0988636 27.7151736,21.0988636 C27.2009587,21.0988636 27.1505455,20.655 27.6647603,20.5772727 C29.0521322,20.4197727 29.207405,19.7161364 29.207405,13.6227273 C29.207405,8.7975 28.8464463,7.51909091 27.5619174,7.67659091 C27.1767603,7.72772727 27.0981157,7.54568182 27.4590744,7.33704545 C28.898876,6.52909091 29.5663471,6.29386364 30.3386777,6.29386364 Z M44.793157,6.05045455 C46.3358017,6.05045455 47.1847603,6.98931818 47.1847603,8.65840909 C47.1847603,9.3375 47.1343471,10.9084091 47.0819174,13.8477273 C46.9730248,19.8204545 47.1020826,20.4197727 48.5418843,20.5772727 L48.5439008,20.5772727 C49.1347438,20.655 48.9814876,21.0988636 48.4914711,21.0988636 C47.4126281,21.0988636 46.8459835,20.9413636 45.8175537,20.9413636 C44.789124,20.9413636 44.2244959,21.0988636 43.1436364,21.0988636 C42.6052231,21.0988636 42.5527934,20.655 43.0932231,20.5772727 C44.480595,20.4197727 44.6358678,19.7938636 44.686281,14.2915909 C44.7387107,9.70159091 44.2507107,7.875 43.016595,7.875 C42.6132893,7.875 42.1938512,8.07954545 41.0363636,8.81590909 C40.6330579,9.07568182 40.2640331,8.65840909 40.8347107,8.19 C42.6334545,6.64977273 43.7405289,6.05045455 44.793157,6.05045455 Z M90.0884298,6.29386364 C91.0664463,6.32045455 91.5,6.86659091 91.5,8.04068182 C91.5,9.13704545 91.2680992,11.3522727 91.3185124,14.3815909 C91.4253884,20.0025 91.5302479,20.4197727 92.8651901,20.5772727 C93.4822479,20.655 93.3289917,21.0988636 92.8147769,21.0988636 C91.7601322,21.0988636 91.2015537,20.9413636 90.1408595,20.9413636 C89.132595,20.9413636 88.572,21.0988636 87.4669421,21.0988636 C86.9527273,21.0988636 86.9002975,20.655 87.4145124,20.5772727 C88.8039008,20.4197727 88.957157,19.7161364 88.957157,13.6227273 C88.957157,8.7975 88.5982149,7.51909091 87.3116694,7.67659091 C86.9265124,7.72772727 86.8498843,7.54568182 87.2088264,7.33704545 C88.6486281,6.52909091 89.3181157,6.29386364 90.0884298,6.29386364 Z M68.3139504,6.28568182 C69.2919669,6.31227273 69.7255207,6.85840909 69.7255207,8.0325 C69.7255207,9.07568182 69.6226777,11.1354545 69.6226777,13.6145455 C69.6226777,19.8204545 69.6993058,20.16 71.0624793,20.5690909 C71.6271074,20.7511364 71.4980496,21.0906818 71.0100496,21.0906818 C69.9049917,21.0906818 69.3968264,20.9331818 68.3361322,20.9331818 C67.275438,20.9331818 66.7672727,21.0906818 65.6622149,21.0906818 C65.1217851,21.0906818 65.0975868,20.7245455 65.6118017,20.5690909 C66.9729587,20.1252273 67.1544463,19.3684091 67.1544463,13.6145455 C67.1504132,8.81590909 66.7955041,7.51090909 65.5371901,7.66840909 C65.1520331,7.71954545 65.075405,7.5375 65.4343471,7.32886364 C66.8741488,6.52090909 67.5436364,6.28568182 68.3139504,6.28568182 Z M68.0830579,0.0612232684 C69.1245849,0.0612232684 69.9782044,0.899539478 70.0118678,1.95545455 C70.0167734,2.47593845 69.8149639,2.97652429 69.4519246,3.34438636 C69.129223,3.67137486 68.7032694,3.86903499 68.2522178,3.90504557 L68.083,3.91022327 L67.9138979,3.90504557 C67.4628463,3.86903499 67.0368927,3.67137486 66.7141911,3.34438636 C66.3511518,2.97652429 66.1493423,2.47593845 66.1542479,1.95545455 C66.1879113,0.899539478 67.0415308,0.0612232684 68.0830579,0.0612232684 Z" id="Combined-Shape"></path>
            </g>
        </g>
    </g>
</svg>